<?xml version="1.0" encoding="UTF-8" standalone="no"?>
<svg
   xmlns:dc="http://purl.org/dc/elements/1.1/"
   xmlns:cc="http://creativecommons.org/ns#"
   xmlns:rdf="http://www.w3.org/1999/02/22-rdf-syntax-ns#"
   xmlns:svg="http://www.w3.org/2000/svg"
   xmlns="http://www.w3.org/2000/svg"
   viewBox="0 0 501.33334 133.33333"
   height="133.33333"
   width="501.33334"
   xml:space="preserve"
   id="svg2"
   version="1.1"><metadata
     id="metadata8"><rdf:RDF><cc:Work
         rdf:about=""><dc:format>image/svg+xml</dc:format><dc:type
           rdf:resource="http://purl.org/dc/dcmitype/StillImage" /></cc:Work></rdf:RDF></metadata><defs
     id="defs6"><clipPath
       id="clipPath20"
       clipPathUnits="userSpaceOnUse"><path
         id="path18"
         d="M 0,100 H 376 V 0 H 0 Z" /></clipPath></defs><g
     transform="matrix(1.3333333,0,0,-1.3333333,0,133.33333)"
     id="g10"><path
       id="path12"
       style="fill:#000000;fill-opacity:1;fill-rule:evenodd;stroke:none"
       d="M 42.333,74.448 H 56.981 V 59.672 H 42.333 Z" /><g
       id="g14"><g
         clip-path="url(#clipPath20)"
         id="g16"><g
           transform="translate(42.0139,99.9998)"
           id="g22"><path
             id="path24"
             style="fill:#d2262c;fill-opacity:1;fill-rule:evenodd;stroke:none"
             d="m 0,0 v -23.055 c -14.148,-4.182 -22.353,-19.483 -18.329,-34.174 4.027,-14.694 18.763,-23.215 32.912,-19.033 14.15,4.184 22.356,19.48 18.326,34.178 -2.481,9.067 -9.244,16.196 -17.938,18.91 L 14.94,-0.048 c 20.794,-3.45 37.062,-20.453 40.241,-42.069 4.036,-27.452 -14.123,-53.107 -40.561,-57.299 -26.437,-4.193 -51.142,14.664 -55.179,42.12 C -44.596,-29.842 -26.439,-4.189 0,0" /></g><g
           transform="translate(130.7464,87.178)"
           id="g26"><path
             id="path28"
             style="fill:#000000;fill-opacity:1;fill-rule:evenodd;stroke:none"
             d="M 0,0 H 18.989 L 40.577,-52.417 H 22.175 l -2.822,8.397 H -0.678 l -2.862,-8.354 h -18.007 z m 9.385,-14.352 -6.412,-18.14 h 12.433 z" /></g><g
           transform="translate(161.2625,87.0686)"
           id="g30"><path
             id="path32"
             style="fill:#000000;fill-opacity:1;fill-rule:evenodd;stroke:none"
             d="M 0,0 H 62.237 V -15.981 H 38.449 V -52.393 H 23.34 v 36.24 H 0 Z" /></g><g
           transform="translate(337.5002,54.6863)"
           id="g34"><path
             id="path36"
             style="fill:#000000;fill-opacity:1;fill-rule:nonzero;stroke:none"
             d="M 0,0 6.415,18.14 12.43,0 Z M 16.016,32.492 H -2.969 l -21.554,-52.374 h 18.011 l 2.862,8.354 h 20.034 l 2.819,-8.397 h 18.403 z" /></g><g
           transform="translate(311.5754,87.0969)"
           id="g38"><path
             id="path40"
             style="fill:#000000;fill-opacity:1;fill-rule:evenodd;stroke:none"
             d="m 0,0 v -11.654 h -46.862 v -8.817 h 32.171 c 6.44,0 12.266,-3.959 14.843,-10.088 V -41.258 C -1.72,-47.563 -7.187,-51.984 -13.531,-52.314 H -62.046 V -40.6 h 46.461 v 8.288 h -33.733 c -5.976,0.997 -10.938,5.335 -12.905,11.28 v 10.367 c 2.262,5.911 7.508,10.021 13.603,10.665 z" /></g><path
           id="path42"
           style="fill:#000000;fill-opacity:1;fill-rule:evenodd;stroke:none"
           d="m 229.02,86.915 h 15.522 V 34.853 H 229.02 Z" /><g
           transform="translate(251.6165,30.2332)"
           id="g44"><path
             id="path46"
             style="fill:#d2262c;fill-opacity:1;fill-rule:evenodd;stroke:none"
             d="M 0,0 H 13.651 V -3.502 H 8.434 V -11.49 H 5.12 v 7.946 H 0 Z" /></g><g
           transform="translate(338.2727,23.1101)"
           id="g48"><path
             id="path50"
             style="fill:#d2262c;fill-opacity:1;fill-rule:nonzero;stroke:none"
             d="M 0,0 1.408,3.979 2.726,0 Z M 3.513,7.124 H -0.65 L -5.379,-4.362 h 3.951 L -0.8,-2.529 H 3.595 L 4.212,-4.37 H 8.25 Z" /></g><g
           transform="translate(234.7766,30.2273)"
           id="g52"><path
             id="path54"
             style="fill:#d2262c;fill-opacity:1;fill-rule:evenodd;stroke:none"
             d="m 0,0 v -2.559 h -10.278 v -1.934 h 7.056 c 1.412,0 2.69,-0.867 3.255,-2.209 v -2.349 c -0.411,-1.384 -1.609,-2.351 -3,-2.428 h -10.641 v 2.575 h 10.19 v 1.815 h -7.399 c -1.31,0.218 -2.399,1.171 -2.83,2.474 v 2.273 c 0.496,1.298 1.647,2.2 2.983,2.342 z" /></g><path
           id="path56"
           style="fill:#d2262c;fill-opacity:1;fill-rule:evenodd;stroke:none"
           d="m 109.501,30.198 h 3.404 V 18.779 h -3.404 z" /><path
           id="path58"
           style="fill:#d2262c;fill-opacity:1;fill-rule:evenodd;stroke:none"
           d="m 312.591,30.198 h 3.404 V 18.779 h -3.404 z" /><g
           transform="translate(366.7366,21.3611)"
           id="g60"><path
             id="path62"
             style="fill:#d2262c;fill-opacity:1;fill-rule:nonzero;stroke:none"
             d="M 0,0 V 8.837 H -3.405 V -2.582 H -3.352 0 8.068 V 0 Z" /></g><g
           transform="translate(139.9588,30.198)"
           id="g64"><path
             id="path66"
             style="fill:#d2262c;fill-opacity:1;fill-rule:nonzero;stroke:none"
             d="M 0,0 V -7.228 L -6.797,0 h -3.406 v -11.419 h 3.406 v 7.425 L 0,-11.419 h 3.404 v 1.766 l 0,9.653 z" /></g><g
           transform="translate(200.7503,30.1902)"
           id="g68"><path
             id="path70"
             style="fill:#d2262c;fill-opacity:1;fill-rule:nonzero;stroke:none"
             d="M 0,0 V -8.829 H -0.787 -4.892 -6.543 V 0 h -3.523 v -8.407 c 0,-0.821 0.24,-1.525 0.722,-2.121 0.471,-0.583 1.039,-0.875 1.704,-0.875 h 2.748 4.105 1.887 c 0.662,0 1.23,0.292 1.703,0.875 0.481,0.596 0.722,1.3 0.722,2.121 l 0,8.407 z" /></g><path
           id="path72"
           style="fill:#d2262c;fill-opacity:1;fill-rule:nonzero;stroke:none"
           d="m 170.342,21.328 h -6.64 v 6.026 h 6.64 z m 1.077,8.864 H 160.2 V 18.787 h 0.019 11.2 c 0.663,0 2.423,0.318 2.423,2.996 v 5.411 c 0,0.845 -0.131,2.998 -2.423,2.998" /><path
           id="path74"
           style="fill:#d2262c;fill-opacity:1;fill-rule:nonzero;stroke:none"
           d="m 285.615,27.354 h 6.644 V 24.68 h -6.644 z m 6.65,-8.567 h 3.502 l -1.871,3.405 c 0.787,0.186 1.86,0.835 1.86,2.933 v 2.069 c 0,0.845 -0.13,2.998 -2.423,2.998 H 282.114 V 18.787 h 0.019 3.478 l 0.001,3.337 h 4.817 z" /></g></g></g></svg>